<svg width="35" height="35" viewBox="0 0 35 35" fill="none" xmlns="http://www.w3.org/2000/svg">
<path d="M17.5 24.0625C15.7595 24.0625 14.0903 23.3711 12.8596 22.1404C11.6289 20.9097 10.9375 19.2405 10.9375 17.5C10.9375 15.7595 11.6289 14.0903 12.8596 12.8596C14.0903 11.6289 15.7595 10.9375 17.5 10.9375C19.2405 10.9375 20.9097 11.6289 22.1404 12.8596C23.3711 14.0903 24.0625 15.7595 24.0625 17.5C24.0625 19.2405 23.3711 20.9097 22.1404 22.1404C20.9097 23.3711 19.2405 24.0625 17.5 24.0625ZM17.5 26.25C19.8206 26.25 22.0462 25.3281 23.6872 23.6872C25.3281 22.0462 26.25 19.8206 26.25 17.5C26.25 15.1794 25.3281 12.9538 23.6872 11.3128C22.0462 9.67187 19.8206 8.75 17.5 8.75C15.1794 8.75 12.9538 9.67187 11.3128 11.3128C9.67187 12.9538 8.75 15.1794 8.75 17.5C8.75 19.8206 9.67187 22.0462 11.3128 23.6872C12.9538 25.3281 15.1794 26.25 17.5 26.25ZM17.5 0C17.7901 0 18.0683 0.115234 18.2734 0.320352C18.4785 0.52547 18.5938 0.803669 18.5938 1.09375V5.46875C18.5938 5.75883 18.4785 6.03703 18.2734 6.24215C18.0683 6.44727 17.7901 6.5625 17.5 6.5625C17.2099 6.5625 16.9317 6.44727 16.7266 6.24215C16.5215 6.03703 16.4062 5.75883 16.4062 5.46875V1.09375C16.4062 0.803669 16.5215 0.52547 16.7266 0.320352C16.9317 0.115234 17.2099 0 17.5 0V0ZM17.5 28.4375C17.7901 28.4375 18.0683 28.5527 18.2734 28.7579C18.4785 28.963 18.5938 29.2412 18.5938 29.5312V33.9062C18.5938 34.1963 18.4785 34.4745 18.2734 34.6796C18.0683 34.8848 17.7901 35 17.5 35C17.2099 35 16.9317 34.8848 16.7266 34.6796C16.5215 34.4745 16.4062 34.1963 16.4062 33.9062V29.5312C16.4062 29.2412 16.5215 28.963 16.7266 28.7579C16.9317 28.5527 17.2099 28.4375 17.5 28.4375ZM35 17.5C35 17.7901 34.8848 18.0683 34.6796 18.2734C34.4745 18.4785 34.1963 18.5938 33.9062 18.5938H29.5312C29.2412 18.5938 28.963 18.4785 28.7579 18.2734C28.5527 18.0683 28.4375 17.7901 28.4375 17.5C28.4375 17.2099 28.5527 16.9317 28.7579 16.7266C28.963 16.5215 29.2412 16.4062 29.5312 16.4062H33.9062C34.1963 16.4062 34.4745 16.5215 34.6796 16.7266C34.8848 16.9317 35 17.2099 35 17.5ZM6.5625 17.5C6.5625 17.7901 6.44727 18.0683 6.24215 18.2734C6.03703 18.4785 5.75883 18.5938 5.46875 18.5938H1.09375C0.803669 18.5938 0.52547 18.4785 0.320352 18.2734C0.115234 18.0683 0 17.7901 0 17.5C0 17.2099 0.115234 16.9317 0.320352 16.7266C0.52547 16.5215 0.803669 16.4062 1.09375 16.4062H5.46875C5.75883 16.4062 6.03703 16.5215 6.24215 16.7266C6.44727 16.9317 6.5625 17.2099 6.5625 17.5ZM29.8747 5.12531C30.0797 5.33042 30.1949 5.60857 30.1949 5.89859C30.1949 6.18862 30.0797 6.46677 29.8747 6.67188L26.7816 9.76719C26.6799 9.86874 26.5592 9.94926 26.4264 10.0042C26.2935 10.0591 26.1512 10.0873 26.0075 10.0872C25.7173 10.087 25.439 9.97147 25.2339 9.76609C25.1324 9.6644 25.0518 9.5437 24.9969 9.41089C24.942 9.27808 24.9138 9.13575 24.9139 8.99204C24.9141 8.7018 25.0296 8.42352 25.235 8.21844L28.3281 5.12531C28.5332 4.92027 28.8114 4.80508 29.1014 4.80508C29.3914 4.80508 29.6696 4.92027 29.8747 5.12531ZM9.765 25.235C9.97005 25.4401 10.0852 25.7183 10.0852 26.0083C10.0852 26.2983 9.97005 26.5765 9.765 26.7816L6.67188 29.8747C6.46559 30.0739 6.18931 30.1842 5.90253 30.1817C5.61575 30.1792 5.34143 30.0642 5.13864 29.8614C4.93585 29.6586 4.82082 29.3842 4.81833 29.0975C4.81583 28.8107 4.92608 28.5344 5.12531 28.3281L8.21844 25.235C8.42355 25.03 8.7017 24.9148 8.99172 24.9148C9.28174 24.9148 9.55989 25.03 9.765 25.235ZM29.8747 29.8747C29.6696 30.0797 29.3914 30.1949 29.1014 30.1949C28.8114 30.1949 28.5332 30.0797 28.3281 29.8747L25.235 26.7816C25.0358 26.5753 24.9255 26.299 24.928 26.0122C24.9305 25.7254 25.0455 25.4511 25.2483 25.2483C25.4511 25.0455 25.7254 24.9305 26.0122 24.928C26.299 24.9255 26.5753 25.0358 26.7816 25.235L29.8747 28.3281C30.0797 28.5332 30.1949 28.8114 30.1949 29.1014C30.1949 29.3914 30.0797 29.6696 29.8747 29.8747ZM9.765 9.76719C9.55989 9.97223 9.28174 10.0874 8.99172 10.0874C8.7017 10.0874 8.42355 9.97223 8.21844 9.76719L5.12531 6.67188C5.02085 6.57098 4.93752 6.45029 4.8802 6.31685C4.82288 6.18341 4.79271 6.03988 4.79144 5.89466C4.79018 5.74943 4.81786 5.60541 4.87285 5.47099C4.92785 5.33657 5.00906 5.21445 5.11176 5.11176C5.21445 5.00906 5.33657 4.92785 5.47099 4.87285C5.60541 4.81786 5.74943 4.79018 5.89466 4.79144C6.03988 4.79271 6.18341 4.82288 6.31685 4.8802C6.45029 4.93752 6.57098 5.02085 6.67188 5.12531L9.765 8.21844C9.86686 8.32004 9.94767 8.44073 10.0028 8.57361C10.0579 8.70649 10.0863 8.84895 10.0863 8.99281C10.0863 9.13668 10.0579 9.27913 10.0028 9.41201C9.94767 9.54489 9.86686 9.66559 9.765 9.76719Z" fill="white"/>
</svg>
