<svg width="27" height="27" viewBox="0 0 27 27" fill="none" xmlns="http://www.w3.org/2000/svg">
<path d="M20.2325 0.029541H6.76721C3.05741 0.029541 0.0391846 3.03761 0.0391846 6.73494V20.2649C0.0391846 23.962 3.05741 26.9704 6.76721 26.9704H20.2325C23.9423 26.9704 26.9605 23.962 26.9605 20.2649V6.73491C26.9605 3.03761 23.9423 0.029568 20.2325 0.029568V0.029541ZM24.4687 20.2649C24.4687 22.5926 22.5684 24.4868 20.2326 24.4868H6.76723C4.43135 24.4868 2.53107 22.5926 2.53107 20.2649V11.5264H7.85401C7.4654 12.3483 7.24683 13.2653 7.24683 14.2322C7.24683 17.7445 10.1137 20.6015 13.6376 20.6015C17.1615 20.6015 20.0284 17.7445 20.0284 14.2322C20.0284 13.2653 19.8099 12.3483 19.4212 11.5264H24.4687V20.2649H24.4687ZM10.9847 14.2323C10.9847 12.7746 12.1747 11.5884 13.6377 11.5884C15.1006 11.5884 16.2906 12.7746 16.2906 14.2323C16.2906 15.6903 15.1006 16.8763 13.6377 16.8763C12.1748 16.8763 10.9847 15.6903 10.9847 14.2323ZM24.4687 9.04292H17.336C16.2911 8.30129 15.0152 7.86316 13.6377 7.86316C12.2601 7.86316 10.9841 8.30129 9.93938 9.04292H2.53107V6.73494C2.53107 4.40692 4.43135 2.51303 6.76723 2.51303H20.2326C22.5684 2.51303 24.4687 4.40692 24.4687 6.73494V9.04292H24.4687H24.4687ZM21.7685 4.01922H19.4587C19.0474 4.01922 18.7111 4.35451 18.7111 4.76426V7.06644C18.7111 7.47617 19.0474 7.81148 19.4587 7.81148H21.7685C22.1798 7.81148 22.5161 7.47617 22.5161 7.06644V4.76426C22.5161 4.35451 22.1798 4.01922 21.7685 4.01922Z" fill="white" fill-opacity="0.75"/>
</svg>
