<svg width="27" height="22" viewBox="0 0 27 22" fill="none" xmlns="http://www.w3.org/2000/svg">
<path d="M27.0002 2.60597C26.2483 3.72778 25.3259 4.68406 24.2329 5.47483C24.2437 5.68691 24.2491 5.92662 24.2491 6.19395C24.2491 7.67928 24.0332 9.16642 23.6014 10.6553C23.1696 12.1443 22.5101 13.5695 21.6228 14.9309C20.7355 16.2923 19.6785 17.4984 18.452 18.5492C17.2254 19.6 15.751 20.4378 14.0287 21.0627C12.3065 21.6876 10.4607 22 8.49139 22C5.41794 22 2.5876 21.1677 0.000366211 19.5032C0.45957 19.5544 0.899985 19.5801 1.32161 19.5801C3.88923 19.5801 6.18252 18.7868 8.20149 17.2002C7.00432 17.1782 5.93217 16.8085 4.98503 16.0912C4.03789 15.3739 3.38609 14.4573 3.02963 13.3414C3.38197 13.4088 3.72971 13.4424 4.07286 13.4424C4.56681 13.4424 5.05284 13.3778 5.53097 13.2486C4.25337 12.9919 3.19349 12.3536 2.35133 11.3337C1.50921 10.3138 1.08814 9.1366 1.08814 7.80217V7.7334C1.87234 8.16894 2.70881 8.40061 3.59755 8.42842C2.84071 7.9223 2.24065 7.26231 1.79737 6.44844C1.35406 5.63457 1.1324 4.75383 1.1324 3.8062C1.1324 2.80677 1.38207 1.87611 1.88141 1.01422C3.27078 2.72446 4.95429 4.09133 6.93194 5.11485C8.90961 6.13837 11.0313 6.70681 13.297 6.82015C13.2003 6.41619 13.1519 5.99463 13.1517 5.55548C13.1517 4.02214 13.6927 2.71289 14.7746 1.62774C15.8565 0.542579 17.1618 0 18.6904 0C20.2908 0 21.6389 0.584547 22.7345 1.75364C23.9864 1.50491 25.1586 1.05502 26.251 0.403964C25.8301 1.73262 25.0191 2.75758 23.818 3.47886C24.922 3.34727 25.9827 3.05631 27.0001 2.60597H27.0002Z" fill="white" fill-opacity="0.75"/>
</svg>
