<svg width="76" height="60" viewBox="0 0 76 60" fill="none" xmlns="http://www.w3.org/2000/svg">
<path d="M30.3863 30.6621C31.1187 31.3945 32.3059 31.3945 33.0383 30.6621L34.3637 29.3367C35.0961 28.6043 35.0961 27.4172 34.3637 26.6848L30.1777 22.5L34.3625 18.3141C35.0949 17.5816 35.0949 16.3945 34.3625 15.6621L33.0371 14.3367C32.3047 13.6043 31.1176 13.6043 30.3852 14.3367L23.5484 21.1734C22.816 21.9059 22.816 23.093 23.5484 23.8254L30.3863 30.6621V30.6621ZM41.6375 29.3379L42.9629 30.6633C43.6953 31.3957 44.8824 31.3957 45.6148 30.6633L52.4516 23.8266C53.184 23.0941 53.184 21.907 52.4516 21.1746L45.6148 14.3379C44.8824 13.6055 43.6953 13.6055 42.9629 14.3379L41.6375 15.6633C40.9051 16.3957 40.9051 17.5828 41.6375 18.3152L45.8223 22.5L41.6375 26.6859C40.9051 27.4184 40.9051 28.6055 41.6375 29.3379V29.3379ZM73.625 48.75H45.2117C45.125 51.0715 43.4879 52.5 41.375 52.5H34.25C32.0598 52.5 30.3805 50.4527 30.4098 48.75H2.375C1.34375 48.75 0.5 49.5938 0.5 50.625V52.5C0.5 56.625 3.875 60 8 60H68C72.125 60 75.5 56.625 75.5 52.5V50.625C75.5 49.5938 74.6562 48.75 73.625 48.75ZM68 5.625C68 2.53125 65.4688 0 62.375 0H13.625C10.5312 0 8 2.53125 8 5.625V45H68V5.625ZM60.5 37.5H15.5V7.5H60.5V37.5Z" fill="#9D0C0C"/>
</svg>
