<svg width="35" height="60" viewBox="0 0 35 60" fill="none" xmlns="http://www.w3.org/2000/svg">
<path d="M29.7188 0H5.65625C2.80957 0 0.5 2.51953 0.5 5.625V54.375C0.5 57.4805 2.80957 60 5.65625 60H29.7188C32.5654 60 34.875 57.4805 34.875 54.375V5.625C34.875 2.51953 32.5654 0 29.7188 0ZM17.6875 56.25C15.7861 56.25 14.25 54.5742 14.25 52.5C14.25 50.4258 15.7861 48.75 17.6875 48.75C19.5889 48.75 21.125 50.4258 21.125 52.5C21.125 54.5742 19.5889 56.25 17.6875 56.25ZM29.7188 43.5938C29.7188 44.3672 29.1387 45 28.4297 45H6.94531C6.23633 45 5.65625 44.3672 5.65625 43.5938V7.03125C5.65625 6.25781 6.23633 5.625 6.94531 5.625H28.4297C29.1387 5.625 29.7188 6.25781 29.7188 7.03125V43.5938Z" fill="#9D0C0C"/>
</svg>
