<svg width="84" height="26" viewBox="0 0 84 26" fill="none" xmlns="http://www.w3.org/2000/svg">
<path d="M7.532 25.648C6.212 25.648 4.868 25.48 3.5 25.144C2.132 24.832 0.992 24.412 0.08 23.884L0.26 18.988H0.62L1.736 21.328C2.072 22 2.432 22.6 2.816 23.128C3.2 23.632 3.728 24.028 4.4 24.316C4.88 24.556 5.336 24.724 5.768 24.82C6.224 24.892 6.728 24.928 7.28 24.928C8.744 24.928 9.896 24.532 10.736 23.74C11.6 22.948 12.032 21.928 12.032 20.68C12.032 19.504 11.744 18.592 11.168 17.944C10.592 17.272 9.668 16.624 8.396 16L6.92 15.352C4.856 14.44 3.236 13.396 2.06 12.22C0.908 11.02 0.332 9.436 0.332 7.468C0.332 6.052 0.692 4.828 1.412 3.796C2.156 2.764 3.176 1.972 4.472 1.42C5.792 0.867999 7.328 0.591999 9.08 0.591999C10.352 0.591999 11.552 0.759999 12.68 1.096C13.832 1.432 14.828 1.888 15.668 2.464L15.452 6.784H15.092L13.616 4.084C13.208 3.244 12.8 2.656 12.392 2.32C11.984 1.96 11.516 1.708 10.988 1.564C10.676 1.468 10.388 1.408 10.124 1.384C9.86 1.336 9.524 1.312 9.116 1.312C7.892 1.312 6.86 1.672 6.02 2.392C5.18 3.088 4.76 4.036 4.76 5.236C4.76 6.46 5.084 7.444 5.732 8.188C6.38 8.908 7.328 9.556 8.576 10.132L10.232 10.852C12.536 11.86 14.192 12.94 15.2 14.092C16.208 15.22 16.712 16.684 16.712 18.484C16.712 20.596 15.908 22.324 14.3 23.668C12.716 24.988 10.46 25.648 7.532 25.648ZM18.4248 25V24.64L19.1448 24.352C19.6248 24.184 19.9368 23.956 20.0808 23.668C20.2488 23.38 20.3328 23.008 20.3328 22.552V3.724C20.3328 3.244 20.2488 2.86 20.0808 2.572C19.9368 2.284 19.6248 2.056 19.1448 1.888L18.4248 1.6V1.24H27.5688V1.6L26.9568 1.852C26.5008 2.02 26.1888 2.248 26.0208 2.536C25.8528 2.8 25.7688 3.172 25.7688 3.652V12.4H34.3728V3.652C34.3728 3.172 34.2888 2.8 34.1208 2.536C33.9768 2.248 33.6648 2.02 33.1848 1.852L32.5368 1.6V1.24H41.7168V1.6L40.9968 1.888C40.5408 2.056 40.2288 2.284 40.0608 2.572C39.8928 2.86 39.8088 3.244 39.8088 3.724V22.552C39.8088 23.008 39.8928 23.38 40.0608 23.668C40.2288 23.956 40.5408 24.184 40.9968 24.352L41.7168 24.64V25H32.5368V24.64L33.1848 24.424C33.6648 24.232 33.9768 24.004 34.1208 23.74C34.2888 23.452 34.3728 23.068 34.3728 22.588V13.12H25.7688V22.588C25.7688 23.476 26.1648 24.088 26.9568 24.424L27.5688 24.64V25H18.4248ZM43.3154 25V24.64L44.0354 24.388C44.5154 24.244 44.8274 24.028 44.9714 23.74C45.1394 23.452 45.2234 23.068 45.2234 22.588V3.724C45.2234 3.244 45.1394 2.86 44.9714 2.572C44.8034 2.284 44.4794 2.056 43.9994 1.888L43.3154 1.6V1.24H52.0634C55.6394 1.24 58.2194 1.9 59.8034 3.22C61.4114 4.516 62.2154 6.232 62.2154 8.368C62.2154 9.736 61.8794 10.996 61.2074 12.148C60.5594 13.276 59.4794 14.176 57.9674 14.848C56.4554 15.52 54.4154 15.856 51.8474 15.856H50.6234V22.48C50.6234 23.416 51.0914 24.028 52.0274 24.316L53.1074 24.64V25H43.3154ZM50.6234 15.136H51.9914C53.1674 15.136 54.1274 14.944 54.8714 14.56C55.6154 14.176 56.1674 13.504 56.5274 12.544C56.8874 11.584 57.0674 10.252 57.0674 8.548C57.0674 6.82 56.8634 5.476 56.4554 4.516C56.0714 3.556 55.4954 2.896 54.7274 2.536C53.9594 2.152 52.9994 1.96 51.8474 1.96H50.6234V15.136ZM62.2897 25V24.64L62.9017 24.46C63.4057 24.292 63.8017 24.076 64.0897 23.812C64.3777 23.524 64.6657 23.164 64.9537 22.732L70.4977 14.164L64.1977 3.436C63.9577 3.028 63.7537 2.716 63.5857 2.5C63.4177 2.26 63.1057 2.044 62.6497 1.852L62.0737 1.6V1.24H71.7217V1.6L70.8937 1.852C70.3897 2.02 70.1137 2.284 70.0657 2.644C70.0177 3.004 70.1377 3.436 70.4257 3.94L74.1337 10.24L78.0937 3.976C78.4057 3.472 78.5857 3.016 78.6337 2.608C78.7057 2.2 78.4657 1.924 77.9137 1.78L77.1937 1.6V1.24H82.1977V1.6L81.2617 1.888C80.8057 2.008 80.4457 2.212 80.1817 2.5C79.9417 2.764 79.6897 3.1 79.4257 3.508L74.6017 11.032L81.4417 22.732C81.7057 23.164 81.9577 23.5 82.1977 23.74C82.4377 23.956 82.7737 24.16 83.2057 24.352L83.8897 24.64V25H73.8097V24.64L74.6377 24.424C75.2137 24.28 75.5377 24.016 75.6097 23.632C75.6817 23.248 75.5617 22.804 75.2497 22.3L70.9657 14.992L66.2497 22.444C65.9377 22.924 65.8057 23.356 65.8537 23.74C65.9257 24.124 66.1897 24.376 66.6457 24.496L67.1497 24.64V25H62.2897Z" fill="#4B4B4B"/>
</svg>
