<svg width="16" height="16" viewBox="0 0 16 16" fill="none" xmlns="http://www.w3.org/2000/svg">
<path d="M4.66667 3C5.03486 3 5.33333 2.70152 5.33333 2.33333V0.666667C5.33333 0.298477 5.03486 0 4.66667 0C4.29848 0 4 0.298477 4 0.666667V2.33333C4 2.70152 4.29848 3 4.66667 3Z" fill="black"/>
<path d="M3 4.66667C3 4.29848 2.70152 4 2.33333 4H0.666667C0.298477 4 0 4.29848 0 4.66667C0 5.03486 0.298477 5.33333 0.666667 5.33333H2.33333C2.70152 5.33333 3 5.03486 3 4.66667Z" fill="black"/>
<path d="M2.33333 10.6667H0.666667C0.298477 10.6667 0 10.9652 0 11.3334C0 11.7015 0.298477 12 0.666667 12H2.33333C2.70152 12 3 11.7015 3 11.3334C3 10.9652 2.70152 10.6667 2.33333 10.6667Z" fill="black"/>
<path d="M11.3333 0C10.9651 0 10.6667 0.298477 10.6667 0.666667V2.33333C10.6667 2.70152 10.9651 3 11.3333 3C11.7015 3 12 2.70152 12 2.33333V0.666667C12 0.298477 11.7015 0 11.3333 0Z" fill="black"/>
<path d="M4.66667 13C4.29848 13 4 13.2985 4 13.6667V15.3333C4 15.7015 4.29848 16 4.66667 16C5.03486 16 5.33333 15.7015 5.33333 15.3333V13.6667C5.33333 13.2985 5.03486 13 4.66667 13Z" fill="black"/>
<path d="M11.3333 13C10.9651 13 10.6667 13.2985 10.6667 13.6667V15.3333C10.6667 15.7015 10.9651 16 11.3333 16C11.7015 16 12 15.7015 12 15.3333V13.6667C12 13.2985 11.7015 13 11.3333 13Z" fill="black"/>
<path d="M13.6667 5.33333H15.3333C15.7015 5.33333 16 5.03486 16 4.66667C16 4.29848 15.7015 4 15.3333 4H13.6667C13.2985 4 13 4.29848 13 4.66667C13 5.03486 13.2985 5.33333 13.6667 5.33333Z" fill="black"/>
<path d="M15.3333 10.6667H13.6667C13.2985 10.6667 13 10.9652 13 11.3334C13 11.7015 13.2985 12 13.6667 12H15.3333C15.7015 12 16 11.7015 16 11.3334C16 10.9652 15.7015 10.6667 15.3333 10.6667Z" fill="black"/>
<path fill-rule="evenodd" clip-rule="evenodd" d="M11.3333 4C11.7015 4 12 4.29848 12 4.66667V11.3333C12 11.7015 11.7015 12 11.3333 12H4.66667C4.29848 12 4 11.7015 4 11.3333V4.66667C4 4.29848 4.29848 4 4.66667 4H11.3333ZM10.3333 10.6667C10.5174 10.6667 10.6667 10.5174 10.6667 10.3333V5.66667C10.6667 5.48257 10.5174 5.33333 10.3333 5.33333H5.66667C5.48257 5.33333 5.33333 5.48257 5.33333 5.66667V10.3333C5.33333 10.5174 5.48257 10.6667 5.66667 10.6667H10.3333Z" fill="black"/>
</svg>
