<svg width="21" height="21" viewBox="0 0 21 21" fill="none" xmlns="http://www.w3.org/2000/svg">
<g clip-path="url(#clip0_20_98)">
<path d="M8.39009 8.65369C8.39009 7.71027 7.74825 7.71027 7.74825 7.71027H7.4084H5.10764V9.73461H7.58457C8.0126 9.73441 8.39009 9.59753 8.39009 8.65369Z" fill="white"/>
<path d="M7.74846 11.1329H5.10764V13.5574H7.62651C8.00544 13.5466 8.70477 13.4279 8.70477 12.3789C8.70477 11.1202 7.74846 11.1329 7.74846 11.1329Z" fill="white"/>
<path d="M14.509 9.73444C13.1076 9.73444 12.9122 11.1329 12.9122 11.1329H15.8923C15.8925 11.1329 15.9103 9.73444 14.509 9.73444Z" fill="white"/>
<path d="M10.3416 0.729614C4.81869 0.729614 0.341553 5.20695 0.341553 10.7296C0.341553 16.2523 4.81869 20.7296 10.3416 20.7296C15.8644 20.7296 20.3416 16.2523 20.3416 10.7296C20.3416 5.20695 15.8644 0.729614 10.3416 0.729614ZM12.5218 6.63202H16.2648V7.74915H12.5218V6.63202ZM10.63 12.4915C10.63 15.2604 7.74841 15.1693 7.74841 15.1693H5.10759H5.03004H3.02759V6.09759H5.03004H5.10759H7.7482C9.18288 6.09759 10.3154 6.88961 10.3154 8.51294C10.3154 10.1365 8.93102 10.2394 8.93102 10.2394C10.7559 10.2394 10.63 12.4915 10.63 12.4915ZM14.5267 13.9222C16.0346 13.9222 15.9812 12.9463 15.9812 12.9463H17.5778C17.5778 15.5364 14.4735 15.359 14.4735 15.359C10.7483 15.359 10.9879 11.8909 10.9879 11.8909C10.9879 11.8909 10.985 8.40573 14.4731 8.40573C18.1451 8.40573 17.631 12.3433 17.631 12.3433H12.9302C12.9302 14.0291 14.5267 13.9222 14.5267 13.9222Z" fill="white"/>
</g>
<defs>
<clipPath id="clip0_20_98">
<rect width="20" height="20" fill="white" transform="translate(0.341553 0.729614)"/>
</clipPath>
</defs>
</svg>
