<svg width="11" height="11" viewBox="0 0 11 11" fill="none" xmlns="http://www.w3.org/2000/svg">
<g clip-path="url(#clip0_20_19)">
<path d="M10.0386 1.6283H1.79639C1.31236 1.6283 0.91748 2.02275 0.91748 2.5072V8.36658C0.91748 8.84939 1.31061 9.24548 1.79639 9.24548H10.0386C10.5214 9.24548 10.9175 8.85236 10.9175 8.36658V2.5072C10.9175 2.02439 10.5244 1.6283 10.0386 1.6283ZM9.91721 2.21423L5.93611 6.19535L1.92059 2.21423H9.91721ZM1.50342 8.24525V2.62574L4.32527 5.42339L1.50342 8.24525ZM1.91773 8.65955L4.74137 5.83591L5.73076 6.81681C5.84529 6.93037 6.03012 6.93 6.14418 6.81591L7.10889 5.85121L9.91723 8.65955H1.91773ZM10.3315 8.24523L7.5232 5.43689L10.3315 2.62853V8.24523Z" fill="#56CCF2"/>
</g>
<defs>
<clipPath id="clip0_20_19">
<rect width="10" height="10" fill="white" transform="translate(0.91748 0.43689)"/>
</clipPath>
</defs>
</svg>
