<svg width="11" height="11" viewBox="0 0 11 11" fill="none" xmlns="http://www.w3.org/2000/svg">
<g clip-path="url(#clip0_20_57)">
<path d="M5.91767 0.770538C3.9207 0.770538 2.29605 2.39519 2.29605 4.39214C2.29605 6.87042 5.53705 10.5087 5.67504 10.6624C5.80464 10.8067 6.03093 10.8065 6.16031 10.6624C6.2983 10.5087 9.53929 6.87042 9.53929 4.39214C9.53925 2.39519 7.91463 0.770538 5.91767 0.770538ZM5.91767 9.94493C4.82691 8.64927 2.94824 6.09304 2.94824 4.39218C2.94824 2.7548 4.28031 1.42273 5.91767 1.42273C7.55504 1.42273 8.88711 2.7548 8.88711 4.39216C8.88709 6.0931 7.00871 8.64886 5.91767 9.94493Z" fill="#56CCF2"/>
<path d="M5.91765 2.57003C4.91293 2.57003 4.09555 3.38743 4.09555 4.39216C4.09555 5.39689 4.91295 6.21429 5.91765 6.21429C6.92236 6.21429 7.73973 5.39689 7.73973 4.39216C7.73973 3.38743 6.92236 2.57003 5.91765 2.57003ZM5.91765 5.5621C5.27254 5.5621 4.74774 5.03728 4.74774 4.39216C4.74774 3.74704 5.27256 3.22222 5.91765 3.22222C6.56275 3.22222 7.08757 3.74704 7.08757 4.39216C7.08757 5.03728 6.56275 5.5621 5.91765 5.5621Z" fill="#56CCF2"/>
</g>
<defs>
<clipPath id="clip0_20_57">
<rect width="10" height="10" fill="white" transform="translate(0.917664 0.770538)"/>
</clipPath>
</defs>
</svg>
