<svg width="21" height="21" viewBox="0 0 21 21" fill="none" xmlns="http://www.w3.org/2000/svg">
<g clip-path="url(#clip0_20_120)">
<path d="M10.3416 0.994141C4.81869 0.994141 0.341553 5.47128 0.341553 10.9941C0.341553 16.517 4.81869 20.9941 10.3416 20.9941C15.8644 20.9941 20.3416 16.517 20.3416 10.9941C20.3416 5.47128 15.8644 0.994141 10.3416 0.994141ZM6.59465 17.7647H3.78339V8.71956H6.59465V17.7647ZM5.18963 7.48314C4.28856 7.48314 3.55915 6.75271 3.55915 5.85286C3.55935 4.95383 4.28856 4.2234 5.18963 4.2234C6.08825 4.2234 6.81869 4.95383 6.81869 5.85286C6.81869 6.75291 6.08805 7.48314 5.18963 7.48314ZM17.1238 17.7647H14.3147V13.3659C14.3147 12.3169 14.2953 10.9677 12.8535 10.9677C11.3914 10.9677 11.1665 12.1103 11.1665 13.29V17.7645H8.35772V8.71956H11.054V9.95557H11.0918C11.4673 9.24437 12.3839 8.4947 13.7517 8.4947C16.5983 8.4947 17.1238 10.3681 17.1238 12.8034V17.7647Z" fill="white"/>
</g>
<defs>
<clipPath id="clip0_20_120">
<rect width="20" height="20" fill="white" transform="translate(0.341553 0.994141)"/>
</clipPath>
</defs>
</svg>
