<svg width="11" height="11" viewBox="0 0 11 11" fill="none" xmlns="http://www.w3.org/2000/svg">
<g clip-path="url(#clip0_20_38)">
<path d="M10.6602 7.47918L9.41707 6.23603C9.07434 5.89332 8.51664 5.89332 8.17393 6.23603L7.60887 6.80109C7.34922 7.06074 6.92672 7.06066 6.66717 6.80119L4.21794 4.34988C3.95769 4.08963 3.95765 3.6684 4.21794 3.40811C4.30896 3.31709 4.57031 3.05574 4.783 2.84305C5.12423 2.50184 5.129 1.94588 4.78267 1.59959L3.53986 0.360689C3.19712 0.0179742 2.63944 0.0179742 2.29763 0.35979C2.04184 0.613345 1.95934 0.695141 1.84466 0.808833C0.608716 2.04475 0.608716 4.05574 1.8446 5.29162L5.72531 9.17435C6.96414 10.4132 8.96922 10.4133 10.2081 9.17435L10.6602 8.7223C11.003 8.37957 11.003 7.82191 10.6602 7.47918ZM2.7111 0.775063C2.82534 0.660825 3.0112 0.660806 3.12581 0.775376L4.36863 2.01428C4.48314 2.12879 4.48314 2.31412 4.36863 2.42866L4.16142 2.63584L2.50497 0.979399L2.7111 0.775063ZM6.13976 8.76004L2.25903 4.87727C1.30282 3.92106 1.25026 2.41959 2.09739 1.40059L3.74904 3.05223C3.31505 3.5442 3.33314 4.29387 3.80347 4.7642L6.25261 7.21539C6.25263 7.21541 6.25267 7.21545 6.25269 7.21547C6.72252 7.68531 7.47215 7.70457 7.96473 7.27L9.61641 8.92168C8.60065 9.76734 7.10256 9.72283 6.13976 8.76004ZM10.2459 8.30793L10.0387 8.51513L8.38113 6.8576L8.5883 6.65041C8.70256 6.53617 8.88844 6.53615 9.0027 6.65041L10.2458 7.89355C10.3601 8.00781 10.3601 8.19371 10.2459 8.30793Z" fill="#56CCF2"/>
</g>
<defs>
<clipPath id="clip0_20_38">
<rect width="10" height="10" fill="white" transform="translate(0.91748 0.103546)"/>
</clipPath>
</defs>
</svg>
