<svg width="11" height="11" viewBox="0 0 11 11" fill="none" xmlns="http://www.w3.org/2000/svg">
<g clip-path="url(#clip0_20_17)">
<path d="M9.45221 2.23498C7.49873 0.281458 4.33654 0.281146 2.38275 2.23498C0.429205 4.1885 0.428912 7.35065 2.38275 9.30447C4.33623 11.258 7.49841 11.2583 9.45221 9.30447C11.4058 7.35094 11.406 4.1888 9.45221 2.23498ZM9.24328 8.59188C9.00972 8.38303 8.75988 8.1982 8.49654 8.03892C8.6706 7.43767 8.77372 6.77604 8.7981 6.08828H10.2678C10.2013 7.01532 9.84513 7.88494 9.24328 8.59188ZM1.56716 6.08828H3.03684C3.06122 6.77604 3.16434 7.43767 3.33839 8.03892C3.07505 8.1982 2.82522 8.38303 2.59166 8.59188C1.98981 7.88494 1.63363 7.01532 1.56716 6.08828ZM2.59168 2.94756C2.82524 3.15642 3.07507 3.34125 3.33841 3.50053C3.16435 4.10178 3.06124 4.76341 3.03686 5.45117H1.56716C1.63363 4.52415 1.98981 3.65453 2.59168 2.94756ZM5.59893 3.56638C5.07939 3.52922 4.57845 3.40126 4.11405 3.19016C4.38414 2.49465 4.88205 1.66047 5.59893 1.45374V3.56638ZM5.59893 4.20468V5.45118H3.67423C3.69628 4.86939 3.77872 4.31073 3.91581 3.79956C4.44356 4.03027 5.01115 4.16805 5.59893 4.20468ZM5.59893 6.08828V7.33478C5.01115 7.37141 4.44356 7.50919 3.91581 7.7399C3.77872 7.22874 3.69628 6.67007 3.67423 6.08828H5.59893ZM5.59893 7.97309V10.0857C4.88209 9.87898 4.38418 9.04489 4.11405 8.34931C4.57845 8.13821 5.07939 8.01025 5.59893 7.97309ZM6.23603 7.97309C6.75556 8.01025 7.2565 8.13821 7.72091 8.34931C7.4508 9.04483 6.9529 9.87898 6.23603 10.0857V7.97309ZM6.23603 7.33478V6.08828H8.16073C8.13867 6.67007 8.05624 7.22874 7.91915 7.7399C7.39139 7.50919 6.82381 7.37141 6.23603 7.33478ZM6.23603 5.45118V4.20468C6.82381 4.16805 7.39139 4.03027 7.91915 3.79956C8.05624 4.31073 8.13867 4.86939 8.16073 5.45118H6.23603ZM6.23603 3.56638V1.45376C6.9529 1.66049 7.45082 2.49467 7.72091 3.19018C7.2565 3.40126 6.75556 3.52922 6.23603 3.56638ZM7.66689 1.7718C8.07466 1.95037 8.45509 2.1925 8.79612 2.49292C8.6338 2.63604 8.46251 2.76582 8.28365 2.88188C8.12482 2.4886 7.92192 2.10641 7.66689 1.7718ZM3.55129 2.88188C3.37243 2.76582 3.20116 2.63604 3.03881 2.49292C3.37984 2.1925 3.76027 1.95037 4.16805 1.7718C3.91302 2.10645 3.71012 2.48864 3.55129 2.88188ZM3.5513 8.65759C3.71012 9.05084 3.91306 9.43305 4.16807 9.76766C3.76029 9.5891 3.37986 9.34697 3.03883 9.04655C3.20116 8.90343 3.37245 8.77365 3.5513 8.65759ZM8.28365 8.65759C8.46251 8.77365 8.6338 8.90343 8.79612 9.04653C8.45509 9.34695 8.07466 9.58908 7.66689 9.76764C7.9219 9.43307 8.12482 9.05086 8.28365 8.65759ZM8.79811 5.45118C8.77374 4.76343 8.67062 4.10178 8.49656 3.50055C8.7599 3.34127 9.00972 3.15644 9.2433 2.94758C9.84515 3.65453 10.2013 4.52415 10.2678 5.45118H8.79811Z" fill="#56CCF2"/>
</g>
<defs>
<clipPath id="clip0_20_17">
<rect width="10" height="10" fill="white" transform="translate(0.917358 0.770218)"/>
</clipPath>
</defs>
</svg>
